<svg id="tractor" xmlns="http://www.w3.org/2000/svg" width="31" height="25" viewBox="0 0 31 25">
  <path id="Path" d="M0,8V0H9l4,12" transform="translate(6.5 0.5)" fill="none" stroke="#fff" stroke-miterlimit="10" stroke-width="1"/>
  <path id="Path-2" data-name="Path" d="M3,.5H0" transform="translate(3.5)" fill="none" stroke="#fff" stroke-linecap="square" stroke-miterlimit="10" stroke-width="1"/>
  <path id="Path-3" data-name="Path" d="M0,6V2A2.006,2.006,0,0,1,2,0H3" transform="translate(22.5 6.5)" fill="none" stroke="#fff" stroke-linecap="square" stroke-miterlimit="10" stroke-width="1"/>
  <path id="Path-4" data-name="Path" d="M0,0H10a2.006,2.006,0,0,1,2,2V4" transform="translate(14.5 12.5)" fill="none" stroke="#fff" stroke-miterlimit="10" stroke-width="1"/>
  <path id="Path-5" data-name="Path" d="M0,.8A10.571,10.571,0,0,1,4,0,10.029,10.029,0,0,1,14,10a9.928,9.928,0,0,1-.5,3h6.6" transform="translate(2.5 8.5)" fill="none" stroke="#fff" stroke-miterlimit="10" stroke-width="1"/>
  <circle id="Oval" cx="6" cy="6" r="6" transform="translate(0.5 12.5)" fill="none" stroke="#fff" stroke-linecap="square" stroke-miterlimit="10" stroke-width="1"/>
  <circle id="Oval-2" data-name="Oval" cx="4" cy="4" r="4" transform="translate(22.5 16.5)" fill="none" stroke="#fff" stroke-linecap="square" stroke-miterlimit="10" stroke-width="1"/>
</svg>
